<svg xmlns="http://www.w3.org/2000/svg" width="102.465" height="125.805" viewBox="0 0 102.465 125.805">
  <g id="Group_362" data-name="Group 362" transform="translate(-4128.643 -581.201)">
    <path id="Path_149" data-name="Path 149" d="M4209.408,1068.63a110.132,110.132,0,0,1-17.524-5.094c-1.352-.518-1.937,1.655-.6,2.169a110.1,110.1,0,0,0,17.525,5.094C4210.224,1071.085,4210.828,1068.918,4209.408,1068.63Z" transform="translate(-47.968 -373.801)" fill="#ffd750"/>
    <path id="Path_150" data-name="Path 150" d="M4295.373,1089.956a1.125,1.125,0,0,0,0-2.249A1.125,1.125,0,0,0,4295.373,1089.956Z" transform="translate(-128.393 -392.598)" fill="#ffd750"/>
    <path id="Path_151" data-name="Path 151" d="M4233.828,892.412a10.789,10.789,0,0,1,4.519-1.9q-.146,4.976-.291,9.953c-.1,3.414.44,8.033-2.324,10.6-2.254,2.089-5.8,2.29-8.685,1.816-1.416-.233-2.025,1.934-.6,2.168,5.141.846,11.243-.392,13.062-5.938,1-3.062.734-6.581.826-9.759q.132-4.488.262-8.976a9.65,9.65,0,0,1,3.942,1.028,38.733,38.733,0,0,1,4.317,2.893q.354,3.3.827,6.585a170.52,170.52,0,0,0,5.3,24.043,1.125,1.125,0,0,0,2.168-.6,170.7,170.7,0,0,1-4.977-21.906c-.354-2.243-.656-4.494-.917-6.75a6.968,6.968,0,0,0,3.908.5c1.426-.224.82-2.391-.6-2.169a5.421,5.421,0,0,1-3.586-.88c-.066-.661-.133-1.323-.191-1.986a68.627,68.627,0,0,0-1.129-9.882c-.6-2.528-1.93-6.437-4.7-7.33-2.884-.932-5.375,1.675-6,4.252a23.6,23.6,0,0,0-.4,4.877l-.151,5.177a12.433,12.433,0,0,0-5.721,2.247C4231.534,891.314,4232.655,893.266,4233.828,892.412Zm6.842-4.453.163-5.582a11.523,11.523,0,0,1,.665-4.681c.62-1.285,2.257-2.333,3.48-1.177a9.65,9.65,0,0,1,2.178,4.083c.95,3.056,1.04,6.286,1.3,9.451.037.454.081.906.123,1.36a15.453,15.453,0,0,0-5.078-2.821,12.446,12.446,0,0,0-2.834-.463Z" transform="translate(-75.18 -226.738)" fill="#ffd750"/>
    <path id="Path_152" data-name="Path 152" d="M4324.7,831.868l.228.176a1.116,1.116,0,0,0,.567.153h.232a1.152,1.152,0,0,0,1.123-1.124l-.04-.3a1.11,1.11,0,0,0-.289-.5l-.228-.176a1.123,1.123,0,0,0-.567-.154h-.232a1.154,1.154,0,0,0-1.125,1.124q.02.149.04.3A1.12,1.12,0,0,0,4324.7,831.868Z" transform="translate(-151.71 -192.806)" fill="#fff"/>
    <path id="Path_153" data-name="Path 153" d="M4395.56,1087.956a20.767,20.767,0,0,0,17.777-4.1c1.126-.91-.474-2.492-1.59-1.59a18.371,18.371,0,0,1-15.59,3.52C4394.749,1085.458,4394.148,1087.625,4395.56,1087.956Z" transform="translate(-206.266 -388.174)" fill="#ffd750"/>
    <path id="Path_154" data-name="Path 154" d="M4224.9,656.506c-5.007-2.049-11.248-.053-15.66,2.878q-.278-3.7-.55-7.4l-.17-2.333c4.436-.92,7.656-5.765,5.431-9.811a10.882,10.882,0,0,0-7.488-19.43,6.186,6.186,0,0,0-4.548-5.9c-3.521-.9-6.827,1.509-8.258,4.588a1.092,1.092,0,0,0-.056.126c-.023.054-.049.108-.072.162a.9.9,0,0,0,.032.852c.19,3.027,1.252,5.879,1.675,8.872.326,2.312.146,5.145-1.558,6.92-.4.418-1.037.679-1.214,1.266a5.422,5.422,0,0,0,.058,1.9,7.907,7.907,0,0,0,1.149,3.7,4.329,4.329,0,0,0,4.657,1.851,9.669,9.669,0,0,0,7.958,5.071c.981,13.324,1.992,26.646,2.906,39.974.49,7.154.911,14.314,1.108,21.482.082,2.978.583,6.61-.781,9.381-1.233,2.5-3.992,3.589-6.542,4.225-6.6,1.644-13.576,1.665-20.332,1.668a140.534,140.534,0,0,1-19.021-1.056,65.737,65.737,0,0,1-18.3-4.982,37.915,37.915,0,0,1-3.982-2.027c-1.6-.97-2.083-2.281-2.389-4.055a55.352,55.352,0,0,1-.661-10.565c.171-7.952,1.347-15.888,2.235-23.782q.885-7.835,1.766-15.67a6.013,6.013,0,0,0,1.619-1.183,10.106,10.106,0,0,0,2.589-5.737,15.046,15.046,0,0,0,.038-3.933c-.128-1.043-.733-2.465-.455-3.511.29-1.082,1.84-.735,2.689-.726a12.861,12.861,0,0,0,3.415-.42,8.464,8.464,0,0,0,4.965-3.391c2-3.092.854-8.024-3-8.915-2.049-.472-4.687.639-6.538-.564-1.051-.684-.72-1.833.022-2.622a5.781,5.781,0,0,1,2.855-1.469c4.121-1.089,9.7-.715,11.344-5.658a6.362,6.362,0,0,0-6.3-8.292,8.051,8.051,0,0,0-2.7-6.193,11.059,11.059,0,0,0-8.953-2.312c-5.53.769-11.067,5.249-10.88,11.222a1.341,1.341,0,0,0,.033.259,13.185,13.185,0,0,0-4.39,10.037,18.282,18.282,0,0,0,1.629,7.239c1.014,2.316,2.522,4.46,2.919,7,.82,5.253-2.074,10.743.539,15.783a7.114,7.114,0,0,0,6.251,3.948q-.763,6.773-1.525,13.545c-.835,7.411-1.876,14.835-2.292,22.284a67.844,67.844,0,0,0,.191,11.114c.337,3.086.6,6.317,3.375,8.2a39.649,39.649,0,0,0,8.875,4.124,66.105,66.105,0,0,0,9.391,2.573,113.091,113.091,0,0,0,19.718,1.93,130.989,130.989,0,0,0,21.147-.826c5.778-.817,12.5-2.415,13.548-9.157.518-3.326.175-6.83.058-10.177-.121-3.455-.291-6.908-.49-10.359a9.239,9.239,0,0,0,9.127,1.5c4.783-1.856,7.425-6.726,8.42-11.514a65.927,65.927,0,0,0,.964-8.873c.219-3.167.524-6.343.608-9.518C4231.231,664.791,4230.143,658.651,4224.9,656.506ZM4205.85,634.98c-.349.933-.587,2.253-1.507,2.827-1.063.661-1.812-1.122-2.163-1.891-.684-1.5.305-2.775.785-4.176a9.646,9.646,0,0,0,.489-3.364.967.967,0,0,0,.932-.335c1.8-1.986,5.068.7,5.506,2.717.168.783-.358.713-.983.886a3.8,3.8,0,0,0-1.345.652A5.791,5.791,0,0,0,4205.85,634.98Zm5.081,47.174q-.376-5.327-.775-10.654a1.128,1.128,0,0,0,.471-.954c.147-3.183,4.732-4.456,7.321-4.661,4.31-.343,3.483,4.449,2.931,7.221q-.516,2.6-1.206,5.167a15.849,15.849,0,0,1-1.7,4.829,4.012,4.012,0,0,1-7.013-.881C4210.953,682.2,4210.941,682.176,4210.93,682.154Zm17.522-5.873c-.177,2.57-.312,5.147-.564,7.711-.44,4.473-1.569,9.318-5.237,12.282-3.242,2.62-8.78,2.52-10.608-1.74a1.021,1.021,0,0,0-.312-.419q-.253-4.077-.536-8.152a6.131,6.131,0,0,0,5.227.874c3.718-1.11,4.593-4.85,5.476-8.172q.762-2.872,1.312-5.8a13.042,13.042,0,0,0,.271-5.219,5.07,5.07,0,0,0-2.663-3.542,7.1,7.1,0,0,0-4.551-.22c-2.294.5-4.877,1.418-6.445,3.151l-.381-5.057c3.539-2.618,8.35-4.586,12.814-3.895,5.037.78,6.529,5.8,6.6,10.25C4228.9,670.988,4228.634,673.642,4228.452,676.282Z" transform="translate(0 -21.818)" fill="#fff"/>
    <path id="Path_155" data-name="Path 155" d="M4357.7,850.255a30.389,30.389,0,0,1,4.077,11.784,6.259,6.259,0,0,1-.818-.431c-1.245-.75-2.354,1.169-1.135,1.942l.754.454a1.145,1.145,0,0,0,.434.158,7.985,7.985,0,0,0,1.07.358c.247,2.48.328,4.984.346,7.449.058,8.242-.427,16.686,2.308,24.6.469,1.36,2.643.775,2.168-.6-3.418-9.9-1.669-20.838-2.537-31.184a11.536,11.536,0,0,0,5.6-1.629,1.145,1.145,0,0,0,.811-.07c2.729-1.254,4.828,2.153,5.146,4.369.453,3.152-.216,6.532-.325,9.7-.186,5.425-.855,13.271,5.269,15.771,1.34.547,1.922-1.628.6-2.168-3.123-1.275-3.608-5.193-3.673-8.112-.081-3.7.117-7.4.381-11.091.209-2.917.23-6.153-1.721-8.539a6.351,6.351,0,0,0-3.536-2.228,10.251,10.251,0,0,0,1.753-2.615,9.338,9.338,0,0,0-.016-7.828,8.2,8.2,0,0,0-6.553-4.7,14.693,14.693,0,0,0-10.453,2.617A1.221,1.221,0,0,0,4357.7,850.255Zm10.549-2.323a6.224,6.224,0,0,1,5.02,5.766c.377,4.638-4.532,9.049-9.132,8.879a32.441,32.441,0,0,0-4.26-13.078A12.218,12.218,0,0,1,4368.253,847.932Z" transform="translate(-177.124 -204.87)" fill="#ffd750"/>
    <path id="Path_156" data-name="Path 156" d="M4187.193,911.566c4.516,2.15,10.637-.922,11.726-5.786a32.235,32.235,0,0,0,.262-8.708,65.473,65.473,0,0,0-1.052-8.443c.179-.045.359-.094.535-.148,2.419-.737,5.592-2.385,6.067-5.14.492-2.847-1.966-5.515-4.386-6.6-2.82-1.267-5.69-.556-8.453.445a.963.963,0,0,0-1.071.743,1.259,1.259,0,0,0-.112.519,177.5,177.5,0,0,0-3.792,30.913,1.116,1.116,0,0,0,.087.489A1.012,1.012,0,0,0,4187.193,911.566Zm5.647-32.344c1.884-.689,3.89-1.3,5.868-.707,1.711.514,4.3,2.475,3.787,4.56-.445,1.817-3.163,2.9-4.758,3.333a6.83,6.83,0,0,1-5.817-.764,1.171,1.171,0,0,0-.288-.146Q4192.177,882.35,4192.84,879.222Zm-3.674,30.138a174.013,174.013,0,0,1,2.069-21.489,8.448,8.448,0,0,0,4.674,1.087,58.727,58.727,0,0,1,1.062,14.409,6.273,6.273,0,0,1-2.631,5.288,6.53,6.53,0,0,1-5.315,1.227A1.144,1.144,0,0,0,4189.167,909.36Z" transform="translate(-44.936 -228.547)" fill="#ffd750"/>
    <g id="Group_367" data-name="Group 367" transform="translate(4146.748 581.201)">
      <g id="Group_362-2" data-name="Group 362" transform="translate(0.81 49.924)">
        <path id="Path_157" data-name="Path 157" d="M4233.411,820.908a11.674,11.674,0,0,1-7.293-1.386c-.673-.372-1.8.08-1.692.971.265,2.233-2.341,3.211-4.029,3.907a9.545,9.545,0,0,1-6.256.789,1.125,1.125,0,0,0-.6,2.168c2.893.813,5.749-.02,8.416-1.2,1.842-.814,3.933-2.032,4.559-3.965a14.31,14.31,0,0,0,7.491.88C4235.435,822.873,4234.829,820.706,4233.411,820.908Z" transform="translate(-4212.749 -815.749)" fill="#fff"/>
        <path id="Path_158" data-name="Path 158" d="M4222.83,805.82a3.9,3.9,0,1,0,7.567-1.826,1.139,1.139,0,0,0-2.056-.269,2.461,2.461,0,0,1-3.512.453,1.188,1.188,0,0,0-1.947.978A1.137,1.137,0,0,0,4222.83,805.82Z" transform="translate(-4220.542 -803.194)" fill="#fff"/>
      </g>
      <g id="Group_366" data-name="Group 366">
        <path id="Path_159" data-name="Path 159" d="M4414.637,782.181a2.467,2.467,0,0,1-3.522-2.23,1.142,1.142,0,0,0-1.125-1.125,6.27,6.27,0,0,1-4.215-1.528c-1.089-.943-2.687.641-1.59,1.59l.006.005a1.29,1.29,0,0,0-.035.273c-.045,3,2.817,5.754,5.418,6.866,2.446,1.046,5.6.282,6.446-2.469A1.132,1.132,0,0,0,4414.637,782.181Zm-3.226,2.021c-.083-.072-.166-.146-.249-.219a4.72,4.72,0,0,0,.448.242C4411.544,784.219,4411.479,784.212,4411.411,784.2Z" transform="translate(-4360.038 -732.974)" fill="#fff"/>
        <g id="Group_365" data-name="Group 365">
          <path id="Path_160" data-name="Path 160" d="M4379.245,598.96a9.417,9.417,0,0,0-6.9-3.919c-3.244-.339-6.415.844-9.222,2.364a1.128,1.128,0,0,0,.62,2.086c.022.009.043.021.066.03a7.056,7.056,0,0,0,3.108.267,13.438,13.438,0,0,1,5.943,2.655,1.145,1.145,0,0,0,1.88-.5,2.454,2.454,0,0,1,3.239-1.334A1.135,1.135,0,0,0,4379.245,598.96Zm-3.919-.589a4.679,4.679,0,0,0-.408-.37,6.222,6.222,0,0,1,.666.39c-.062.021-.125.043-.186.066A1.072,1.072,0,0,0,4375.326,598.372Z" transform="translate(-4328.06 -591.884)" fill="#fff"/>
          <g id="Group_364" data-name="Group 364">
            <path id="Path_161" data-name="Path 161" d="M4223.813,584.372c1.278.678,2.416-1.263,1.135-1.942a15.925,15.925,0,0,1-15.034-.879c-1.352.487-.769,2.661.6,2.169a4.25,4.25,0,0,1,5.478,2.668,1.135,1.135,0,0,0,2.168,0A4.2,4.2,0,0,1,4223.813,584.372Z" transform="translate(-4209.147 -581.201)" fill="#fff"/>
            <g id="Group_363" data-name="Group 363" transform="translate(10.177 3.74)">
              <path id="Path_162" data-name="Path 162" d="M4371.544,804.926a3.2,3.2,0,0,1-2.583,1.641c-1.438.086-1.448,2.336,0,2.249a5.531,5.531,0,0,0,4.525-2.755A1.125,1.125,0,0,0,4371.544,804.926Z" transform="translate(-4342.359 -757.93)" fill="#fff"/>
              <path id="Path_163" data-name="Path 163" d="M4288.98,613.8a13.158,13.158,0,0,0-5.071-7.282,6.779,6.779,0,0,0-6.41-.724,8.764,8.764,0,0,0-1.728-5c-1.634-2-4.259-2.726-6.735-2.912a18.947,18.947,0,0,0-14.29,5.215c-.984.938.354,2.393,1.388,1.75a1.027,1.027,0,0,0,.987.636c3.982.018,6.78,4.086,6.736,7.815-.052,4.432-3.317,8.193-6.765,10.606a1.138,1.138,0,0,0-.228,1.768,7.422,7.422,0,0,1,2.606,6.947,12.978,12.978,0,0,1-1.76,3.8,5.469,5.469,0,0,0-.5,3.983c1.125,4.325,7.085,7.358,10.877,4.7a7.05,7.05,0,0,0,5.571,2.145c3.058-.178,5.691-2.01,7.893-4a14.858,14.858,0,0,0,4.832-7.318,8.871,8.871,0,0,0-1.082-6.9A15.768,15.768,0,0,0,4288.98,613.8Zm-13.32,6.722a42.192,42.192,0,0,1-.985,6.513c-.418,1.743-.884,3.915-2.206,5.224-.853.846-3.607,1.63-3.52-.448.027-.67.776-1.181,1.011-1.792a1.9,1.9,0,0,0-.426-2.127c-.484-.466-1.068-.619-1.332-1.3a2.036,2.036,0,0,1-.07-1.266c2.36-1.136,3.43-4.073,5.163-6.081.4-.468,1.49-1.59,2.17-.976C4275.96,618.72,4275.7,619.974,4275.66,620.525Z" transform="translate(-4254.403 -597.832)" fill="#fff"/>
            </g>
          </g>
        </g>
      </g>
    </g>
  </g>
</svg>
