<svg xmlns="http://www.w3.org/2000/svg" width="82.042" height="99.876" viewBox="0 0 82.042 99.876">
  <g id="Group_419" data-name="Group 419" transform="translate(-47.871 -33.292)">
    <g id="Group_411" data-name="Group 411" transform="matrix(1, 0.017, -0.017, 1, 49.594, 33.044)">
      <path id="Path_149" data-name="Path 149" d="M14.817,4.06a86.44,86.44,0,0,1-13.753-4C0-.344-.457,1.361.595,1.764a86.4,86.4,0,0,0,13.754,4C15.458,5.987,15.932,4.286,14.817,4.06Z" transform="translate(10.923 85.118)" fill="#191919"/>
      <path id="Path_150" data-name="Path 150" d="M.853,1.765A.883.883,0,0,0,.853,0,.883.883,0,0,0,.853,1.765Z" transform="translate(29.236 89.398)" fill="#191919"/>
      <path id="Path_151" data-name="Path 151" d="M6.429,14.667a8.467,8.467,0,0,1,3.547-1.494q-.114,3.906-.229,7.811c-.078,2.679.345,6.3-1.824,8.316-1.769,1.639-4.554,1.8-6.816,1.425C0,30.542-.481,32.243.639,32.427c4.035.664,8.824-.308,10.251-4.66.788-2.4.576-5.165.649-7.659q.1-3.522.205-7.045a7.573,7.573,0,0,1,3.094.807,30.4,30.4,0,0,1,3.388,2.27q.277,2.59.649,5.168a133.787,133.787,0,0,0,4.16,18.869.883.883,0,0,0,1.7-.469,133.893,133.893,0,0,1-3.906-17.192q-.418-2.641-.72-5.3a5.467,5.467,0,0,0,3.067.393c1.119-.176.643-1.877-.469-1.7a4.254,4.254,0,0,1-2.814-.69c-.052-.519-.1-1.039-.151-1.559A53.777,53.777,0,0,0,18.859,5.9C18.387,3.92,17.344.853,15.173.152,12.91-.58,10.954,1.466,10.463,3.489a18.517,18.517,0,0,0-.316,3.828l-.118,4.063a9.759,9.759,0,0,0-4.49,1.763C4.63,13.8,5.509,15.337,6.429,14.667Zm5.37-3.5.128-4.381a9.051,9.051,0,0,1,.522-3.674c.486-1.008,1.771-1.831,2.731-.923A7.572,7.572,0,0,1,16.89,5.4a34.1,34.1,0,0,1,1.019,7.418c.029.356.064.711.1,1.067a12.126,12.126,0,0,0-3.985-2.214,9.762,9.762,0,0,0-2.224-.363Z" transform="translate(17.119 51.63)" fill="#191919"/>
      <path id="Path_152" data-name="Path 152" d="M.26,1.507l.178.138a.877.877,0,0,0,.446.12h.182a.662.662,0,0,0,.34-.076.66.66,0,0,0,.284-.182.667.667,0,0,0,.183-.284.662.662,0,0,0,.075-.34L1.916.648A.871.871,0,0,0,1.689.259L1.511.121A.881.881,0,0,0,1.065,0H.883a.665.665,0,0,0-.34.076A.658.658,0,0,0,.26.259.665.665,0,0,0,.076.543.67.67,0,0,0,0,.883c.011.078.021.156.032.235A.874.874,0,0,0,.26,1.507Z" transform="translate(34.546 43.904)" fill="#191919"/>
      <path id="Path_153" data-name="Path 153" d="M.631,4.675A16.3,16.3,0,0,0,14.583,1.459C15.468.745,14.212-.5,13.336.211A14.417,14.417,0,0,1,1.1,2.973C0,2.714-.476,4.415.631,4.675Z" transform="translate(46.969 88.391)" fill="#191919"/>
      <path id="Path_154" data-name="Path 154" d="M75.549,37.01c-3.929-1.608-8.827-.042-12.291,2.259q-.218-2.9-.432-5.808l-.134-1.831c3.481-.722,6.009-4.524,4.262-7.7a8.842,8.842,0,0,0,2.681-9.882,8.832,8.832,0,0,0-8.558-5.367,4.854,4.854,0,0,0-3.569-4.628c-2.763-.7-5.358,1.184-6.481,3.6a.958.958,0,0,0-.044.1c-.018.042-.039.085-.057.127a.705.705,0,0,0,.025.669c.15,2.376.983,4.614,1.314,6.963.256,1.814.115,4.038-1.223,5.431-.316.328-.814.533-.953.994a4.24,4.24,0,0,0,.046,1.488,6.2,6.2,0,0,0,.9,2.905,3.4,3.4,0,0,0,3.655,1.453,7.589,7.589,0,0,0,6.245,3.98c.77,10.457,1.563,20.912,2.281,31.373.385,5.614.715,11.234.87,16.86.064,2.337.458,5.188-.613,7.363-.968,1.964-3.133,2.817-5.134,3.316-5.177,1.29-10.655,1.307-15.958,1.309a110.309,110.309,0,0,1-14.929-.829,51.606,51.606,0,0,1-14.365-3.91,29.786,29.786,0,0,1-3.125-1.591,4.023,4.023,0,0,1-1.875-3.182,43.467,43.467,0,0,1-.519-8.291c.134-6.241,1.057-12.469,1.755-18.664q.694-6.149,1.386-12.3a4.721,4.721,0,0,0,1.271-.929,7.93,7.93,0,0,0,2.031-4.5,11.8,11.8,0,0,0,.03-3.087c-.1-.819-.575-1.934-.356-2.755.228-.849,1.444-.577,2.111-.57a10.088,10.088,0,0,0,2.68-.33,6.642,6.642,0,0,0,3.9-2.662c1.569-2.427.671-6.3-2.358-7-1.608-.371-3.678.5-5.131-.443-.824-.537-.565-1.439.018-2.058a4.534,4.534,0,0,1,2.241-1.153c3.234-.854,7.615-.561,8.9-4.441a4.993,4.993,0,0,0-4.944-6.508,6.318,6.318,0,0,0-2.122-4.861A8.68,8.68,0,0,0,11.958.106c-4.34.6-8.686,4.12-8.539,8.807a1.1,1.1,0,0,0,.027.2A10.348,10.348,0,0,0,0,16.994a14.353,14.353,0,0,0,1.278,5.682c.8,1.818,1.98,3.5,2.291,5.5.644,4.123-1.628,8.431.423,12.387a5.583,5.583,0,0,0,4.906,3.1q-.6,5.315-1.2,10.631C7.046,60.1,6.229,65.93,5.9,71.776A53.251,53.251,0,0,0,6.053,80.5c.264,2.422.474,4.957,2.649,6.439a31.125,31.125,0,0,0,6.966,3.237,51.9,51.9,0,0,0,7.37,2.019,88.764,88.764,0,0,0,15.475,1.515,102.806,102.806,0,0,0,16.6-.648c4.535-.641,9.807-1.9,10.633-7.187a42.744,42.744,0,0,0,.046-7.987c-.1-2.711-.229-5.421-.385-8.13a7.25,7.25,0,0,0,7.163,1.178c3.754-1.456,5.828-5.279,6.608-9.037a51.628,51.628,0,0,0,.757-6.964c.172-2.486.411-4.978.477-7.47C80.515,43.512,79.66,38.693,75.549,37.01ZM60.594,20.116c-.274.733-.46,1.769-1.183,2.219-.835.519-1.423-.881-1.7-1.484-.536-1.177.24-2.178.616-3.278a7.584,7.584,0,0,0,.385-2.64.758.758,0,0,0,.731-.263c1.414-1.558,3.978.552,4.321,2.132.132.614-.281.56-.772.7a2.973,2.973,0,0,0-1.055.512A4.54,4.54,0,0,0,60.594,20.116Zm3.987,37.023q-.3-4.181-.608-8.361a.885.885,0,0,0,.37-.748c.115-2.5,3.715-3.5,5.746-3.659,3.382-.269,2.733,3.492,2.3,5.667q-.405,2.042-.946,4.055a12.458,12.458,0,0,1-1.331,3.79,3.149,3.149,0,0,1-5.5-.692C64.6,57.173,64.591,57.157,64.582,57.139ZM78.333,52.53c-.139,2.017-.245,4.04-.443,6.052-.345,3.51-1.231,7.313-4.11,9.639-2.545,2.056-6.891,1.978-8.326-1.366a.808.808,0,0,0-.245-.329q-.2-3.2-.421-6.4a4.812,4.812,0,0,0,4.1.686c2.917-.871,3.6-3.806,4.3-6.413q.6-2.254,1.03-4.548a10.234,10.234,0,0,0,.212-4.1,3.978,3.978,0,0,0-2.089-2.779,5.573,5.573,0,0,0-3.572-.173,9.638,9.638,0,0,0-5.058,2.473q-.149-1.985-.3-3.969c2.778-2.054,6.553-3.6,10.057-3.057,3.953.612,5.124,4.553,5.184,8.045C78.687,48.376,78.476,50.459,78.333,52.53Z" transform="translate(0 4.968)" fill="#191919"/>
      <path id="Path_155" data-name="Path 155" d="M.429,3.722a23.845,23.845,0,0,1,3.2,9.249,4.9,4.9,0,0,1-.642-.338c-.978-.589-1.847.918-.891,1.524l.592.356a.894.894,0,0,0,.34.124,6.247,6.247,0,0,0,.84.281c.194,1.947.257,3.911.271,5.847.046,6.469-.335,13.1,1.812,19.309.369,1.067,2.074.609,1.7-.469C4.97,31.837,6.343,23.249,5.662,15.13a9.054,9.054,0,0,0,4.394-1.279.9.9,0,0,0,.636-.055c2.142-.984,3.789,1.69,4.039,3.429.355,2.474-.17,5.127-.255,7.611-.146,4.257-.671,10.416,4.135,12.378,1.052.429,1.509-1.278.469-1.7-2.45-1-2.831-4.075-2.882-6.366-.064-2.906.091-5.808.3-8.7.164-2.29.181-4.829-1.351-6.7a4.983,4.983,0,0,0-2.775-1.749,8.048,8.048,0,0,0,1.375-2.052,7.33,7.33,0,0,0-.012-6.144A6.434,6.434,0,0,0,8.592.1a11.533,11.533,0,0,0-8.2,2.054A.958.958,0,0,0,.429,3.722ZM8.709,1.9a4.884,4.884,0,0,1,3.94,4.525c.3,3.64-3.557,7.1-7.167,6.969A25.465,25.465,0,0,0,2.138,3.128,9.588,9.588,0,0,1,8.709,1.9Z" transform="translate(40.333 46.651)" fill="#191919"/>
      <path id="Path_156" data-name="Path 156" d="M.453,27.867C4,29.554,8.8,27.143,9.656,23.326a25.327,25.327,0,0,0,.206-6.834,51.439,51.439,0,0,0-.826-6.627c.141-.036.281-.074.42-.116,1.9-.578,4.388-1.872,4.762-4.034C14.6,3.481,12.675,1.387,10.775.534,8.562-.46,6.31.1,4.141.883a.756.756,0,0,0-.841.583.99.99,0,0,0-.088.407A139.364,139.364,0,0,0,.237,26.135a.876.876,0,0,0,.069.384A.8.8,0,0,0,.453,27.867ZM4.885,2.482a7.3,7.3,0,0,1,4.605-.555c1.343.4,3.373,1.942,2.972,3.579-.349,1.426-2.482,2.272-3.734,2.616a5.36,5.36,0,0,1-4.566-.6.924.924,0,0,0-.226-.114Q4.366,4.938,4.885,2.482ZM2,26.135A136.606,136.606,0,0,1,3.626,9.271a6.632,6.632,0,0,0,3.669.853,46.082,46.082,0,0,1,.833,11.309,4.923,4.923,0,0,1-2.065,4.15,5.125,5.125,0,0,1-4.172.963A.9.9,0,0,0,2,26.135Z" transform="translate(10.232 52.042)" fill="#191919"/>
      <g id="Group_367" data-name="Group 367" transform="translate(14.209)">
        <g id="Group_362" data-name="Group 362" transform="translate(0.636 39.182)">
          <path id="Path_157" data-name="Path 157" d="M16.216,1.19A9.16,9.16,0,0,1,10.493.1C9.964-.189,9.081.165,9.165.865,9.372,2.617,7.327,3.385,6,3.931a7.49,7.49,0,0,1-4.91.62.883.883,0,0,0-.469,1.7c2.271.638,4.512-.016,6.6-.939,1.446-.639,3.087-1.595,3.578-3.112a11.232,11.232,0,0,0,5.88.691C17.8,2.733,17.329,1.032,16.216,1.19Z" transform="translate(0 2.859)" fill="#191919"/>
          <path id="Path_158" data-name="Path 158" d="M.021,2.06A3.169,3.169,0,0,0,3.747,4.488,3.182,3.182,0,0,0,5.959.627.894.894,0,0,0,4.346.416,1.931,1.931,0,0,1,1.589.772a.932.932,0,0,0-1.528.768A.9.9,0,0,0,.021,2.06Z" transform="translate(1.774)" fill="#191919"/>
        </g>
        <g id="Group_366" data-name="Group 366">
          <path id="Path_159" data-name="Path 159" d="M8.492,4.059a1.936,1.936,0,0,1-2.764-1.75.9.9,0,0,0-.882-.883A4.924,4.924,0,0,1,1.537.227C.682-.513-.571.73.289,1.475l0,0a.969.969,0,0,0-.028.214C.231,4.049,2.477,6.209,4.519,7.082,6.438,7.9,8.912,7.3,9.578,5.144A.888.888,0,0,0,8.492,4.059ZM5.96,5.645c-.066-.056-.13-.115-.2-.172a3.614,3.614,0,0,0,.351.19C6.064,5.658,6.012,5.653,5.96,5.645Z" transform="translate(34.359 34.56)" fill="#191919"/>
          <g id="Group_365" data-name="Group 365">
            <path id="Path_160" data-name="Path 160" d="M13.094,3.122A7.392,7.392,0,0,0,7.675.046,12.7,12.7,0,0,0,.438,1.9.885.885,0,0,0,.924,3.538c.018.007.034.017.052.023a5.538,5.538,0,0,0,2.439.209A10.55,10.55,0,0,1,8.08,5.855a.9.9,0,0,0,1.476-.389A1.925,1.925,0,0,1,12.1,4.418.891.891,0,0,0,13.094,3.122Zm-3.075-.462a3.732,3.732,0,0,0-.321-.29,4.874,4.874,0,0,1,.523.306c-.049.016-.1.034-.146.052C10.056,2.7,10.04,2.681,10.019,2.659Z" transform="translate(27.077 2.432)" fill="#191919"/>
            <g id="Group_364" data-name="Group 364">
              <path id="Path_161" data-name="Path 161" d="M11.51,2.489c1,.532,1.9-.991.891-1.524A5.06,5.06,0,0,0,6.309,2.1,5.089,5.089,0,0,0,.6.275c-1.061.382-.6,2.088.469,1.7a3.335,3.335,0,0,1,4.3,2.094.891.891,0,0,0,1.7,0A3.294,3.294,0,0,1,11.51,2.489Z" fill="#191919"/>
              <g id="Group_363" data-name="Group 363" transform="translate(7.988 2.935)">
                <path id="Path_162" data-name="Path 162" d="M2.878.428A2.516,2.516,0,0,1,.849,1.716c-1.128.068-1.136,1.833,0,1.765A4.34,4.34,0,0,0,4.4,1.319.883.883,0,0,0,2.878.428Z" transform="translate(20.028 36.456)" fill="#191919"/>
                <path id="Path_163" data-name="Path 163" d="M27.137,12.535a10.328,10.328,0,0,0-3.98-5.715,5.32,5.32,0,0,0-5.031-.568,6.88,6.88,0,0,0-1.355-3.927A7.353,7.353,0,0,0,11.485.039,14.869,14.869,0,0,0,.27,4.132C-.5,4.868.548,6.01,1.359,5.5a.806.806,0,0,0,.775.5c3.125.014,5.321,3.207,5.287,6.134-.041,3.479-2.6,6.43-5.31,8.324a.894.894,0,0,0-.178,1.387A5.825,5.825,0,0,1,3.979,27.3,10.183,10.183,0,0,1,2.6,30.285a4.294,4.294,0,0,0-.39,3.126c.883,3.394,5.562,5.775,8.537,3.685a5.531,5.531,0,0,0,4.372,1.684c2.4-.139,4.467-1.578,6.195-3.14A11.657,11.657,0,0,0,25.1,29.9a6.962,6.962,0,0,0-.849-5.415A12.377,12.377,0,0,0,27.137,12.535ZM16.683,17.81a33.083,33.083,0,0,1-.773,5.111c-.328,1.368-.693,3.073-1.731,4.1-.67.664-2.831,1.28-2.763-.351.021-.526.609-.927.793-1.407a1.49,1.49,0,0,0-.334-1.67c-.379-.365-.838-.485-1.045-1.02a1.6,1.6,0,0,1-.055-.994c1.852-.891,2.691-3.2,4.052-4.773.316-.367,1.169-1.248,1.7-.766C16.919,16.393,16.718,17.378,16.683,17.81Z" fill="#191919"/>
              </g>
            </g>
          </g>
        </g>
      </g>
    </g>
  </g>
</svg>
