<svg xmlns="http://www.w3.org/2000/svg" width="184.8" height="226.892" viewBox="0 0 184.8 226.892">
  <g id="Group_362" data-name="Group 362" transform="translate(-4128.643 -581.201)">
    <path id="Path_149" data-name="Path 149" d="M4224.579,1072.787a198.638,198.638,0,0,1-31.606-9.188c-2.439-.935-3.494,2.985-1.078,3.911a198.561,198.561,0,0,0,31.606,9.188C4226.05,1077.215,4227.14,1073.306,4224.579,1072.787Z" transform="translate(-36.785 -286.655)" fill="#ffd750"/>
    <path id="Path_150" data-name="Path 150" d="M4296.246,1091.763c2.61,0,2.614-4.056,0-4.056S4293.632,1091.763,4296.246,1091.763Z" transform="translate(-98.46 -301.069)" fill="#ffd750"/>
    <path id="Path_151" data-name="Path 151" d="M4240.41,907.428a19.465,19.465,0,0,1,8.15-3.433l-.524,17.95c-.18,6.157.794,14.487-4.191,19.11-4.065,3.768-10.465,4.131-15.663,3.276-2.554-.421-3.652,3.487-1.078,3.911,9.272,1.527,20.277-.708,23.557-10.709,1.811-5.523,1.324-11.87,1.491-17.6q.237-8.094.472-16.189a17.406,17.406,0,0,1,7.111,1.854,69.911,69.911,0,0,1,7.786,5.217q.637,5.951,1.491,11.877a307.454,307.454,0,0,0,9.561,43.362c.741,2.5,4.657,1.433,3.911-1.078a307.691,307.691,0,0,1-8.976-39.508c-.64-4.045-1.183-8.105-1.654-12.174a12.565,12.565,0,0,0,7.048.9c2.571-.4,1.479-4.312-1.078-3.911a9.777,9.777,0,0,1-6.467-1.587c-.119-1.193-.24-2.387-.346-3.582-.522-5.94-.653-12-2.037-17.823-1.084-4.56-3.48-11.609-8.469-13.221-5.2-1.68-9.7,3.02-10.825,7.669a42.507,42.507,0,0,0-.726,8.8l-.272,9.336a22.423,22.423,0,0,0-10.318,4.052C4236.274,905.448,4238.3,908.969,4240.41,907.428Zm12.34-8.032.294-10.067c.082-2.787-.043-5.867,1.2-8.443,1.118-2.318,4.071-4.208,6.276-2.122,1.962,1.856,3.146,4.842,3.929,7.363,1.713,5.512,1.875,11.337,2.341,17.046.066.818.146,1.635.22,2.452a27.861,27.861,0,0,0-9.157-5.087,22.438,22.438,0,0,0-5.111-.835Z" transform="translate(-57.653 -173.877)" fill="#ffd750"/>
    <path id="Path_152" data-name="Path 152" d="M4324.966,833.411l.41.317a2.017,2.017,0,0,0,1.023.276h.419a2.08,2.08,0,0,0,2.027-2.028l-.072-.539a2.006,2.006,0,0,0-.521-.895l-.41-.317a2.023,2.023,0,0,0-1.023-.277h-.419a2.083,2.083,0,0,0-2.028,2.028q.036.269.073.539A2.006,2.006,0,0,0,4324.966,833.411Z" transform="translate(-116.341 -147.856)" fill="#fff"/>
    <path id="Path_153" data-name="Path 153" d="M4396.206,1092.743a37.454,37.454,0,0,0,32.063-7.391c2.032-1.64-.854-4.494-2.867-2.868a33.13,33.13,0,0,1-28.117,6.348C4394.745,1088.236,4393.662,1092.146,4396.206,1092.743Z" transform="translate(-158.178 -297.677)" fill="#ffd750"/>
    <path id="Path_154" data-name="Path 154" d="M4302.253,694.4c-9.03-3.7-20.285-.1-28.243,5.191q-.5-6.673-.992-13.347l-.308-4.207c8-1.659,13.808-10.4,9.794-17.694,6.482-5.346,9.338-14.747,6.162-22.709-3.139-7.885-11.385-12.7-19.667-12.334a11.155,11.155,0,0,0-8.2-10.635c-6.351-1.618-12.313,2.722-14.893,8.274a1.985,1.985,0,0,0-.1.227c-.041.1-.088.195-.13.292a1.619,1.619,0,0,0,.058,1.537c.344,5.459,2.258,10.6,3.021,16,.588,4.169.264,9.28-2.81,12.48-.726.754-1.871,1.225-2.19,2.283a9.769,9.769,0,0,0,.1,3.419,14.249,14.249,0,0,0,2.073,6.676,7.807,7.807,0,0,0,8.4,3.338,17.439,17.439,0,0,0,14.352,9.146c1.769,24.029,3.593,48.057,5.241,72.095.885,12.9,1.644,25.815,2,38.744.147,5.371,1.052,11.921-1.409,16.919-2.225,4.514-7.2,6.474-11.8,7.619-11.9,2.964-24.485,3-36.67,3.008a253.484,253.484,0,0,1-34.306-1.9c-11.3-1.54-22.592-4.259-33.009-8.985a68.4,68.4,0,0,1-7.181-3.657c-2.891-1.75-3.758-4.114-4.31-7.313a99.887,99.887,0,0,1-1.192-19.054c.308-14.341,2.43-28.654,4.033-42.891q1.594-14.13,3.185-28.261a10.834,10.834,0,0,0,2.92-2.134,18.227,18.227,0,0,0,4.669-10.347,27.146,27.146,0,0,0,.069-7.094c-.231-1.882-1.322-4.445-.819-6.331.523-1.951,3.318-1.326,4.851-1.31a23.187,23.187,0,0,0,6.158-.758,15.264,15.264,0,0,0,8.955-6.116c3.606-5.577,1.541-14.472-5.418-16.078-3.7-.852-8.453,1.152-11.791-1.018-1.894-1.233-1.3-3.306.041-4.729a10.423,10.423,0,0,1,5.15-2.648c7.431-1.963,17.5-1.29,20.458-10.2,2.6-7.824-3.776-15.238-11.36-14.954a14.52,14.52,0,0,0-4.875-11.17c-4.353-3.91-10.5-4.956-16.147-4.17-9.973,1.387-19.959,9.467-19.623,20.239a2.484,2.484,0,0,0,.061.466,23.781,23.781,0,0,0-7.917,18.1,32.993,32.993,0,0,0,2.938,13.056c1.829,4.178,4.55,8.043,5.265,12.63,1.479,9.475-3.741,19.375.973,28.465a12.83,12.83,0,0,0,11.274,7.12q-1.376,12.215-2.752,24.429c-1.506,13.365-3.384,26.755-4.133,40.19a122.379,122.379,0,0,0,.346,20.044c.607,5.565,1.089,11.392,6.087,14.8,4.787,3.259,10.584,5.491,16.008,7.438a119.245,119.245,0,0,0,16.937,4.64,203.97,203.97,0,0,0,35.562,3.48c12.693.276,25.546.292,38.141-1.489,10.421-1.473,22.537-4.355,24.434-16.515.935-6,.316-12.318.105-18.355-.219-6.231-.525-12.458-.884-18.682a16.661,16.661,0,0,0,16.461,2.706c8.626-3.347,13.392-12.131,15.185-20.767a118.656,118.656,0,0,0,1.739-16c.395-5.712.945-11.44,1.1-17.165C4313.664,709.339,4311.7,698.266,4302.253,694.4Zm-34.365-38.823c-.629,1.683-1.059,4.064-2.718,5.1-1.918,1.193-3.269-2.024-3.9-3.411-1.233-2.705.551-5.005,1.416-7.532a17.408,17.408,0,0,0,.884-6.068,1.742,1.742,0,0,0,1.68-.6c3.248-3.581,9.142,1.27,9.929,4.9.3,1.411-.646,1.286-1.773,1.6a6.83,6.83,0,0,0-2.425,1.176A10.434,10.434,0,0,0,4267.888,655.576Zm9.163,85.079q-.678-9.608-1.4-19.214a2.035,2.035,0,0,0,.85-1.72c.265-5.74,8.536-8.036,13.2-8.407,7.772-.619,6.281,8.025,5.287,13.023q-.932,4.693-2.175,9.318c-.765,2.844-1.368,6.243-3.058,8.71-3.4,4.967-10.382,3.543-12.648-1.589C4277.093,740.732,4277.072,740.695,4277.051,740.655Zm31.6-10.592c-.319,4.635-.563,9.283-1.019,13.907-.793,8.067-2.83,16.805-9.445,22.151-5.848,4.725-15.835,4.545-19.132-3.139a1.846,1.846,0,0,0-.563-.755q-.458-7.352-.967-14.7a11.058,11.058,0,0,0,9.427,1.576c6.7-2,8.282-8.747,9.875-14.738q1.375-5.18,2.367-10.452c.581-3.1,1.178-6.283.487-9.412a9.143,9.143,0,0,0-4.8-6.387c-2.574-1.212-5.5-.986-8.208-.4-4.137.9-8.8,2.557-11.623,5.684q-.343-4.561-.687-9.121c6.383-4.721,15.059-8.272,23.11-7.024,9.083,1.407,11.775,10.463,11.912,18.487C4309.465,720.516,4308.98,725.3,4308.652,730.063Z" transform="translate(0 -16.731)" fill="#fff"/>
    <path id="Path_155" data-name="Path 155" d="M4358.143,854.065a54.809,54.809,0,0,1,7.354,21.254,11.336,11.336,0,0,1-1.475-.777c-2.246-1.353-4.245,2.109-2.046,3.5l1.36.819a2.058,2.058,0,0,0,.782.285,14.366,14.366,0,0,0,1.93.645c.444,4.473.591,8.988.623,13.435.105,14.865-.77,30.094,4.163,44.372.847,2.452,4.767,1.4,3.91-1.078-6.165-17.849-3.01-37.582-4.576-56.241a20.807,20.807,0,0,0,10.1-2.938,2.064,2.064,0,0,0,1.461-.127c4.921-2.262,8.708,3.882,9.282,7.88.816,5.685-.391,11.781-.586,17.489-.336,9.784-1.542,23.935,9.5,28.444,2.416.986,3.467-2.936,1.079-3.911-5.631-2.3-6.506-9.365-6.624-14.63-.147-6.678.209-13.346.687-20,.377-5.261.415-11.1-3.1-15.4a11.453,11.453,0,0,0-6.376-4.019,18.474,18.474,0,0,0,3.161-4.716,16.848,16.848,0,0,0-.028-14.118,14.785,14.785,0,0,0-11.819-8.482,26.5,26.5,0,0,0-18.854,4.719A2.2,2.2,0,0,0,4358.143,854.065Zm19.026-4.19a11.224,11.224,0,0,1,9.054,10.4c.681,8.365-8.173,16.32-16.47,16.015-1.025-8.2-3.178-16.15-7.683-23.587A22.034,22.034,0,0,1,4377.169,849.875Z" transform="translate(-135.83 -157.108)" fill="#ffd750"/>
    <path id="Path_156" data-name="Path 156" d="M4187.657,940.1c8.145,3.878,19.184-1.663,21.148-10.434,1.126-5.031.766-10.6.473-15.706a118.222,118.222,0,0,0-1.9-15.228c.323-.082.646-.169.965-.267,4.363-1.329,10.084-4.3,10.942-9.269.887-5.135-3.546-9.946-7.91-11.907-5.086-2.285-10.262-1-15.245.8a1.736,1.736,0,0,0-1.932,1.34,2.264,2.264,0,0,0-.2.936,320.176,320.176,0,0,0-6.838,55.752,2.013,2.013,0,0,0,.157.882A1.826,1.826,0,0,0,4187.657,940.1Zm10.185-58.334c3.4-1.243,7.015-2.346,10.583-1.275,3.086.927,7.752,4.463,6.831,8.224-.8,3.277-5.7,5.222-8.582,6.012a12.317,12.317,0,0,1-10.491-1.378,2.125,2.125,0,0,0-.52-.262Q4196.648,887.406,4197.842,881.763Zm-6.626,54.355a313.97,313.97,0,0,1,3.732-38.755,15.239,15.239,0,0,0,8.431,1.961,105.882,105.882,0,0,1,1.916,25.988c-.229,4-1.364,7.18-4.745,9.537-2.728,1.9-6.32,3.132-9.587,2.213A2.06,2.06,0,0,0,4191.216,936.118Z" transform="translate(-34.46 -175.265)" fill="#ffd750"/>
    <g id="Group_367" data-name="Group 367" transform="translate(4161.295 581.201)">
      <g id="Group_362-2" data-name="Group 362" transform="translate(1.461 90.039)">
        <path id="Path_157" data-name="Path 157" d="M4250.013,822.126a21.052,21.052,0,0,1-13.152-2.5c-1.214-.67-3.243.144-3.053,1.751.478,4.028-4.223,5.792-7.266,7.047-3.6,1.485-7.437,2.5-11.284,1.424-2.517-.708-3.591,3.2-1.078,3.911,5.219,1.467,10.369-.036,15.178-2.159,3.323-1.468,7.094-3.665,8.223-7.151a25.808,25.808,0,0,0,13.511,1.587C4253.664,825.672,4252.57,821.763,4250.013,822.126Z" transform="translate(-4212.749 -812.822)" fill="#fff"/>
        <path id="Path_158" data-name="Path 158" d="M4222.852,807.929a7.031,7.031,0,1,0,13.647-3.294,2.054,2.054,0,0,0-3.707-.485,4.438,4.438,0,0,1-6.335.818,2.142,2.142,0,0,0-3.512,1.764A2.049,2.049,0,0,0,4222.852,807.929Z" transform="translate(-4218.726 -803.194)" fill="#fff"/>
      </g>
      <g id="Group_366" data-name="Group 366">
        <path id="Path_159" data-name="Path 159" d="M4423.331,786.336c-3.1,1.163-6.261-.559-6.352-4.022a2.06,2.06,0,0,0-2.028-2.028,11.31,11.31,0,0,1-7.6-2.755c-1.965-1.7-4.846,1.157-2.867,2.868l.01.01a2.288,2.288,0,0,0-.063.492c-.082,5.414,5.081,10.378,9.771,12.384,4.411,1.886,10.1.508,11.626-4.453A2.042,2.042,0,0,0,4423.331,786.336Zm-5.818,3.646c-.151-.13-.3-.263-.448-.395a8.368,8.368,0,0,0,.807.437C4417.753,790.013,4417.634,790,4417.513,789.982Z" transform="translate(-4324.861 -697.591)" fill="#fff"/>
        <g id="Group_365" data-name="Group 365">
          <path id="Path_160" data-name="Path 160" d="M4392.651,602.156a16.986,16.986,0,0,0-12.452-7.068c-5.852-.612-11.57,1.523-16.632,4.264-1.978,1.071-.734,3.816,1.118,3.761.041.017.077.039.12.053a12.727,12.727,0,0,0,5.605.481,24.246,24.246,0,0,1,10.719,4.789,2.064,2.064,0,0,0,3.391-.895,4.425,4.425,0,0,1,5.841-2.407C4391.982,605.756,4393.626,603.562,4392.651,602.156Zm-7.067-1.062a8.49,8.49,0,0,0-.736-.668,11.193,11.193,0,0,1,1.2.7c-.112.038-.225.077-.334.12C4385.671,601.2,4385.632,601.145,4385.583,601.094Z" transform="translate(-4300.338 -589.393)" fill="#fff"/>
          <g id="Group_364" data-name="Group 364">
            <path id="Path_161" data-name="Path 161" d="M4235.6,586.92c2.305,1.222,4.357-2.278,2.047-3.5a28.723,28.723,0,0,1-27.115-1.585c-2.437.878-1.386,4.8,1.079,3.911a7.664,7.664,0,0,1,9.88,4.812,2.048,2.048,0,0,0,3.911,0A7.569,7.569,0,0,1,4235.6,586.92Z" transform="translate(-4209.147 -581.201)" fill="#fff"/>
            <g id="Group_363" data-name="Group 363" transform="translate(18.355 6.745)">
              <path id="Path_162" data-name="Path 162" d="M4374.49,805.365a5.78,5.78,0,0,1-4.661,2.96c-2.593.155-2.611,4.212,0,4.056a9.975,9.975,0,0,0,8.162-4.969C4379.3,805.146,4375.794,803.1,4374.49,805.365Z" transform="translate(-4321.854 -720.605)" fill="#fff"/>
              <path id="Path_163" data-name="Path 163" d="M4316.764,626.637a23.735,23.735,0,0,0-9.146-13.133c-3.362-2.247-7.945-2.981-11.56-1.306-.264-3.249-1-6.445-3.115-9.025-2.948-3.6-7.682-4.916-12.147-5.252a34.169,34.169,0,0,0-25.771,9.406c-1.775,1.691.638,4.316,2.5,3.156a1.852,1.852,0,0,0,1.78,1.148c7.183.033,12.229,7.37,12.148,14.095-.094,7.994-5.983,14.776-12.2,19.128-.97.681-1.5,2.288-.41,3.188a13.386,13.386,0,0,1,4.7,12.529c-.454,2.648-1.971,4.539-3.176,6.859a9.868,9.868,0,0,0-.9,7.183c2.028,7.8,12.78,13.271,19.619,8.469a12.71,12.71,0,0,0,10.047,3.869c5.516-.32,10.265-3.626,14.235-7.215,3.914-3.533,7.488-7.962,8.713-13.2a16,16,0,0,0-1.951-12.444C4317.1,647.047,4319.514,636.112,4316.764,626.637ZM4292.74,638.76a75.948,75.948,0,0,1-1.777,11.746c-.754,3.143-1.594,7.062-3.978,9.422-1.538,1.525-6.506,2.941-6.349-.807.049-1.209,1.4-2.129,1.822-3.233a3.424,3.424,0,0,0-.768-3.837c-.872-.84-1.927-1.115-2.4-2.344a3.677,3.677,0,0,1-.126-2.284c4.256-2.048,6.186-7.345,9.313-10.967.727-.844,2.686-2.867,3.914-1.76C4293.283,635.5,4292.82,637.767,4292.74,638.76Z" transform="translate(-4254.403 -597.832)" fill="#fff"/>
            </g>
          </g>
        </g>
      </g>
    </g>
  </g>
</svg>
